<svg width="18" height="18" viewBox="0 0 18 18" fill="none" xmlns="http://www.w3.org/2000/svg">
<path d="M17 4.19977H13.4324L12.6604 2.18497C12.5712 1.95297 12.3484 1.79976 12.1 1.79976H5.89999C5.6514 1.79976 5.42879 1.95297 5.33978 2.18497L4.56739 4.19977H0.999984C0.448594 4.19977 0 4.64836 0 5.19975V15.1997C0 15.7512 0.448594 16.1998 0.999984 16.1998H17C17.5514 16.1998 18 15.7512 18 15.1998V5.19975C18 4.64836 17.5514 4.19977 17 4.19977ZM16.8 14.9998H1.19999V5.39976H4.97999C5.22858 5.39976 5.45119 5.24655 5.5402 5.01455L6.31262 2.99975H11.6876L12.4598 5.01455C12.5488 5.24655 12.7716 5.39976 13.02 5.39976H16.8V14.9998H16.8Z" fill="white"/>
<path d="M9.00016 5.49983C6.67317 5.49983 4.78015 7.39303 4.78015 9.71985C4.78015 12.0468 6.67314 13.94 9.00016 13.94C11.3272 13.94 13.2202 12.0468 13.2202 9.71985C13.2202 7.39286 11.3271 5.49983 9.00016 5.49983ZM9.00016 12.74C7.33495 12.74 5.98017 11.3854 5.98017 9.72002C5.98017 8.05464 7.33499 6.70003 9.00016 6.70003C10.6654 6.70003 12.0201 8.05485 12.0201 9.72002C12.0201 11.3852 10.6654 12.74 9.00016 12.74Z" fill="white"/>
</svg>
