<svg width="75" height="21" viewBox="0 0 75 21" fill="none" xmlns="http://www.w3.org/2000/svg">
<path d="M70.6657 9.93753C69.8142 8.80274 68.4589 8.04613 66.8824 8.04613C64.486 8.04613 62.9415 10.0325 62.9415 12.239C62.9415 14.635 64.6753 16.4005 66.9767 16.4005C68.5216 16.4005 69.8775 15.6439 70.6657 14.5091V9.93753ZM74.764 19.8687H70.8233V18.639C69.5623 19.711 68.1118 20.1841 66.5669 20.1841C64.2971 20.1841 62.1532 19.175 60.7979 17.5985C59.5996 16.2113 58.8432 14.3199 58.8432 12.239C58.8432 7.731 62.1849 4.26277 66.3464 4.26277C68.0804 4.26277 69.625 4.83022 70.8233 5.80765V4.57802H74.764V19.8687ZM58.0102 19.8687C57.4742 20.0579 56.2445 20.1841 55.4563 20.1841C52.9975 20.1841 51.2004 19.3643 50.1597 17.977C49.3718 16.9366 49.0249 15.5809 49.0249 13.4057V8.04613H44.7688V4.57799H49.0249V0.321876H53.1235V4.57799H58.1678V8.0461H53.1235V13.8785C53.1235 14.8243 53.2813 15.392 53.6279 15.8017C54.0377 16.2745 54.6999 16.558 55.7085 16.558C56.3078 16.558 57.0957 16.4637 57.3796 16.4005L58.0102 19.8687ZM39.4214 9.93753C38.5701 8.80274 37.2142 8.04613 35.6383 8.04613C33.2422 8.04613 31.6974 10.0325 31.6974 12.239C31.6974 14.635 33.4312 16.4005 35.7329 16.4005C37.2778 16.4005 38.6331 15.6439 39.4214 14.5091V9.93753ZM43.5199 19.8687H39.5789V18.639C38.3179 19.711 36.8677 20.1841 35.3231 20.1841C33.053 20.1841 30.9091 19.175 29.5532 17.5985C28.3555 16.2113 27.5986 14.3199 27.5986 12.239C27.5986 7.731 30.9405 4.26277 35.1023 4.26277C36.8361 4.26277 38.3812 4.83022 39.5789 5.80765V4.57802H43.5199V19.8687ZM0.317383 19.8687V4.57799H4.25831V5.80763C5.45634 4.73588 6.90632 4.26275 8.38845 4.26275C10.4691 4.26275 12.3291 5.20866 13.5274 6.6589C14.7565 5.36623 16.6796 4.26275 18.9499 4.26275C21.0622 4.26275 23.0795 5.20866 24.3092 6.7218C25.2867 7.91995 25.8541 9.49643 25.8541 11.7662V19.8687H21.7558V11.6086C21.7558 10.2213 21.472 9.52773 20.9987 8.99202C20.3686 8.29831 19.4857 8.0461 18.6977 8.0461C16.932 8.0461 15.5448 9.27553 15.0087 10.0638C15.072 10.5682 15.135 11.1355 15.135 11.7662V19.8687H11.0367V11.6086C11.0367 10.2213 10.7529 9.52773 10.2796 8.99202C9.64947 8.29831 8.76663 8.0461 7.97839 8.0461C6.24432 8.0461 4.9833 9.21249 4.41564 9.9375V19.8687L0.317383 19.8687Z" fill="white"/>
</svg>
