<svg width="22" height="20" viewBox="0 0 22 20" fill="none" xmlns="http://www.w3.org/2000/svg">
<path d="M22 8.32287C22 7.72355 21.5141 7.23767 20.9148 7.23767H14.6995C14.1002 7.23767 13.6143 7.72355 13.6143 8.32287V11.5785C13.6143 12.1778 14.1002 12.6637 14.6995 12.6637H20.9148C21.5141 12.6637 22 12.1778 22 11.5785V8.32287ZM16.7234 11.2299C16.0248 11.2299 15.4584 10.6636 15.4584 9.96488C15.4584 9.26621 16.0248 8.69983 16.7234 8.69983C17.4221 8.69983 17.9885 9.26621 17.9885 9.96488C17.9885 10.6635 17.4221 11.2299 16.7234 11.2299Z" fill="white"/>
<path d="M11.9622 5.66848H19.25V2.3443C19.25 1.51114 18.6781 0.833313 17.9383 0.833313H2.28791C1.54823 0.833313 0.916664 1.51114 0.916664 2.3443V17.6557C0.916664 18.4888 1.54823 19.1666 2.28791 19.1666H17.9383C18.678 19.1666 19.25 18.4888 19.25 17.6557V14.2307H11.9755L11.9622 5.66848Z" fill="white"/>
</svg>
