<svg width="18" height="18" viewBox="0 0 18 18" fill="none" xmlns="http://www.w3.org/2000/svg">
<path d="M8.99987 0C4.0374 0 0 4.0374 0 9C0 13.9626 4.0374 18 8.99987 18C13.9626 18 18 13.9626 18 9C18 4.0374 13.9626 0 8.99987 0ZM8.99987 16.8197C4.68837 16.8197 1.1804 13.3118 1.1804 9C1.1804 4.68824 4.68837 1.18035 8.99987 1.18035C13.3119 1.18035 16.8196 4.68824 16.8196 9C16.8197 13.3117 13.3119 16.8197 8.99987 16.8197Z" fill="white"/>
<path d="M10.8702 4.94326C10.6397 4.71268 10.2658 4.71268 10.0356 4.94326L6.3962 8.58255C6.2855 8.6932 6.22327 8.84336 6.22327 8.99983C6.22327 9.15634 6.2855 9.30642 6.3962 9.41707L10.0356 13.0564C10.1509 13.1717 10.3019 13.2294 10.4529 13.2294C10.6038 13.2294 10.7552 13.1718 10.8701 13.0564C11.1006 12.8261 11.1006 12.4523 10.8701 12.2219L7.64824 8.99974L10.8701 5.77774C11.1007 5.54743 11.1007 5.17366 10.8702 4.94326Z" fill="white"/>
</svg>
