<svg width="22" height="22" viewBox="0 0 22 22" fill="none" xmlns="http://www.w3.org/2000/svg">
<path d="M5.86667 2.19999L4.4 0.733328C1.88571 2.61904 0.209524 5.55237 0 8.90476H2.09524C2.30476 6.07618 3.66667 3.66666 5.86667 2.19999ZM19.9048 8.90476H22C21.7905 5.55237 20.219 2.61904 17.7048 0.733328L16.2381 2.19999C18.3333 3.66666 19.6952 6.07618 19.9048 8.90476ZM17.8095 9.42857C17.8095 6.18095 15.6095 3.5619 12.5714 2.82857V2.09523C12.5714 1.25714 11.8381 0.523804 11 0.523804C10.1619 0.523804 9.42857 1.25714 9.42857 2.09523V2.82857C6.39048 3.5619 4.19048 6.18095 4.19048 9.42857V15.1905L2.09524 17.2857V18.3333H19.9048V17.2857L17.8095 15.1905V9.42857ZM11 21.4762C11.1048 21.4762 11.3143 21.4762 11.419 21.4762C12.1524 21.3714 12.6762 20.8476 12.8857 20.219C12.9905 20.0095 13.0952 19.6952 13.0952 19.3809H8.90476C8.90476 20.5333 9.84762 21.4762 11 21.4762Z" fill="white"/>
</svg>
