<svg width="30" height="28" viewBox="0 0 30 28" fill="none" xmlns="http://www.w3.org/2000/svg">
<path d="M23.4571 8.85486C23.4571 3.96452 19.4926 3.25653e-08 14.6023 3.25653e-08C9.71193 3.25653e-08 5.74744 3.96452 5.74744 8.85486C5.74744 13.7454 9.71193 17.7097 14.6023 17.7097C19.4926 17.7097 23.4571 13.7454 23.4571 8.85486Z" fill="white"/>
<path d="M20.1396 27.3826C18.3211 27.3826 16.5422 26.79 15.09 25.7068C15.1612 25.6432 15.2311 25.5788 15.2986 25.5147L27.4812 14.7572C28.2059 16.0278 28.5873 17.4644 28.5873 18.9347C28.5873 23.5928 24.7977 27.3826 20.1396 27.3826ZM0.61736 18.9347C0.61736 17.4644 0.9988 16.0278 1.72346 14.7572L13.902 25.5109C13.9722 25.5775 14.0433 25.643 14.1148 25.7068C12.6625 26.79 10.8837 27.3826 9.06523 27.3826C4.40705 27.3826 0.61736 23.5928 0.61736 18.9347ZM27.8165 14.1158L27.6231 13.8083L14.8816 25.0594C14.7898 25.1467 14.6963 25.2306 14.6024 25.3125C14.5085 25.2307 14.415 25.1467 14.3231 25.0594L1.58162 13.8083L1.38826 14.1158C0.480039 15.5596 0 17.2259 0 18.9347C0 23.9333 4.06667 27.9999 9.06523 27.9999C11.0668 27.9999 13.0224 27.3292 14.6024 26.1093C16.1823 27.3292 18.138 27.9999 20.1396 27.9999C25.138 27.9999 29.2047 23.9333 29.2047 18.9347C29.2047 17.2259 28.7247 15.5596 27.8165 14.1158Z" fill="white"/>
</svg>
