<svg width="48" height="48" viewBox="0 0 48 48" fill="none" xmlns="http://www.w3.org/2000/svg">
<g clip-path="url(#clip0)">
<path d="M7.00757 30.7573C6.73584 31.2993 6.84168 31.9544 7.26978 32.3829L7.61365 32.7267C8.60718 31.5494 9.76514 30.2717 11.1696 28.8676C11.2688 28.7684 11.371 28.7204 11.4706 28.6288L9.25831 26.4162C7.97217 28.7424 7.22217 30.3317 7.00757 30.7573Z" fill="#8E68DF"/>
<path d="M19.1241 36.8225C17.7164 38.2302 16.442 39.3904 15.2712 40.3846L15.737 40.8505C16.1691 41.2826 16.8305 41.3866 17.3743 41.1068C18.1027 40.7314 19.2482 40.1924 21.6799 38.8381L19.3632 36.5215C19.2717 36.6215 19.2237 36.7233 19.1241 36.8225Z" fill="#8E68DF"/>
<path d="M18.3738 29.6182C17.3576 28.602 14.4997 29.5131 13.1571 30.8553C8.66593 35.3465 6.63748 38.5307 5.72672 40.4108C5.46561 40.9495 5.57437 41.5944 5.99771 42.0178C6.42178 42.4422 7.06778 42.5499 7.60684 42.2888C9.44486 41.3963 12.5902 39.3774 17.1349 34.8331C18.6111 33.3561 19.3395 30.5843 18.3749 29.6193L18.3738 29.6182Z" fill="#8E68DF"/>
<path d="M4.38921 18.7236L0.411791 22.701C-0.0379163 23.1507 -0.130201 23.8469 0.188402 24.3984C0.499315 24.9426 1.15044 25.2198 1.77007 25.0539C3.91973 24.4775 5.8112 24.2339 7.08489 24.5606C8.8969 21.339 10.844 18.3735 12.9062 15.6796C11.7134 14.9149 7.7719 15.3409 4.38921 18.7236Z" fill="#8E68DF"/>
<path d="M23.803 47.8495C24.3446 48.1234 25.0005 48.0176 25.4293 47.5884L29.4071 43.611C32.4866 40.5308 33.0286 36.5566 32.3299 35.2965C29.3255 37.5608 26.2819 39.4728 23.4423 41.0735C23.6382 42.1798 23.5078 43.2532 23.0446 46.3879C22.9541 46.9948 23.2676 47.5818 23.803 47.8495Z" fill="#8E68DF"/>
<path d="M27.9189 14.1066C26.2743 15.7516 26.2743 18.4276 27.9189 20.0726C29.5639 21.7176 32.2402 21.7176 33.8852 20.0726C35.5302 18.4276 35.5302 15.7516 33.8852 14.1066C32.2402 12.4616 29.5639 12.4616 27.9189 14.1066Z" fill="#8E68DF"/>
<path d="M47.9172 1.37207C47.8667 0.676636 47.313 0.126953 46.6197 0.0749515C43.166 -0.185058 39.7258 0.239746 36.3537 1.271C36.6075 3.58765 37.8057 6.09473 39.8514 8.14038C41.9216 10.2102 44.4968 11.4081 46.8548 11.6322C47.7631 8.44946 48.1937 5.04077 47.9172 1.37207Z" fill="#8E68DF"/>
<path d="M37.8631 10.1292C35.523 7.78912 34.0941 4.98248 33.6356 2.24982C25.1911 5.71307 17.1074 13.2761 10.7195 23.9006L13.8931 27.0742C16.0615 26.1938 18.6938 25.9612 20.3633 27.6304C22.0351 29.3026 21.7982 31.9338 20.9182 34.0992L24.1961 37.3771C32.3707 32.4505 41.8878 24.6887 45.9348 14.3619C43.1354 13.9389 40.2413 12.5074 37.8631 10.1292ZM35.8738 22.0615C33.1328 24.8026 28.6719 24.8026 25.9305 22.0615C23.189 19.32 23.189 14.8588 25.9305 12.1177C28.6719 9.37665 33.1328 9.37665 35.8738 12.1177C38.6153 14.8592 38.6153 19.32 35.8738 22.0615Z" fill="#8E68DF"/>
</g>
<defs>
<clipPath id="clip0">
<rect width="48" height="48" fill="white"/>
</clipPath>
</defs>
</svg>
