<svg width="16" height="16" viewBox="0 0 16 16" fill="none" xmlns="http://www.w3.org/2000/svg">
<path d="M5.12 5.1203L7.27253 2.96792V11.8788C7.27253 12.2804 7.59816 12.606 7.99981 12.606C8.40145 12.606 8.72708 12.2804 8.72708 11.8788V2.96796L10.8794 5.1203C11.0214 5.26232 11.2076 5.33335 11.3936 5.33335C11.5798 5.33335 11.7659 5.26236 11.9079 5.1203C12.1919 4.83628 12.1919 4.37582 11.9079 4.09179L8.51423 0.698048C8.49716 0.68103 8.47927 0.664933 8.4607 0.649661C8.45265 0.643067 8.44417 0.637345 8.43598 0.631188C8.42521 0.623091 8.41469 0.614848 8.40349 0.607333C8.39345 0.600594 8.38303 0.594776 8.3727 0.588618C8.36267 0.582558 8.35282 0.576303 8.34245 0.570727C8.33193 0.565103 8.32116 0.5604 8.3104 0.555309C8.29959 0.550218 8.28902 0.544836 8.27791 0.54023C8.26754 0.535964 8.25697 0.532473 8.24645 0.528691C8.23462 0.524424 8.22293 0.519867 8.21076 0.516182C8.20029 0.51303 8.18967 0.510751 8.17915 0.508085C8.16674 0.504933 8.15442 0.501442 8.14182 0.498921C8.1297 0.496545 8.11743 0.495139 8.10521 0.493345C8.09401 0.491697 8.08291 0.489612 8.07151 0.488497C8.04911 0.486315 8.02667 0.485248 8.00417 0.485103C8.00271 0.485103 8.00131 0.484909 7.99985 0.484909C7.99845 0.484909 7.99699 0.485103 7.99559 0.485103C7.97309 0.4852 7.95059 0.486315 7.92814 0.488497C7.91704 0.489612 7.90618 0.491648 7.89517 0.493248C7.88267 0.495042 7.87016 0.496497 7.85779 0.49897C7.84548 0.501394 7.83355 0.504788 7.82148 0.507842C7.81052 0.510606 7.79956 0.51303 7.7887 0.516279C7.77702 0.519818 7.76562 0.52423 7.75418 0.528351C7.74327 0.532279 7.73227 0.535867 7.7215 0.540327C7.71084 0.544739 7.70065 0.549927 7.69028 0.554824C7.67913 0.560061 7.66788 0.565055 7.65692 0.570873C7.64703 0.576158 7.63772 0.58217 7.62807 0.587891C7.61726 0.594291 7.6064 0.6004 7.59588 0.60743C7.58536 0.614461 7.57551 0.622315 7.56538 0.62983C7.55646 0.636473 7.54739 0.64263 7.53876 0.649758C7.52107 0.664255 7.50415 0.679624 7.4879 0.695673C7.48713 0.696448 7.4863 0.697079 7.48548 0.697855L4.09154 4.09175C3.80756 4.37577 3.80752 4.83623 4.09154 5.12025C4.37552 5.40433 4.83602 5.40423 5.12 5.1203Z" fill="white"/>
<path d="M15.2727 7.75764C14.8711 7.75764 14.5455 8.08326 14.5455 8.48491V14.0607H1.45455V8.48491C1.45455 8.08326 1.12892 7.75764 0.727273 7.75764C0.325624 7.75764 0 8.08326 0 8.48491V14.7879C0 15.1896 0.325624 15.5152 0.727273 15.5152H15.2727C15.6744 15.5152 16 15.1896 16 14.7879V8.48491C16 8.08326 15.6744 7.75764 15.2727 7.75764Z" fill="white"/>
</svg>
